<svg width="59" height="68" viewBox="0 0 59 68" fill="none" xmlns="http://www.w3.org/2000/svg"><g clip-path="url(#clip0_2128_60132)"><path d="M55.867 1.947H1.77v56.647h54.097V1.947Z" fill="#A31639"/><path d="M26.388 7.21c-5.722 7.267-13.225 7.755-14.27 7.776v6.623s.653.01 5.326.026c3.07.01 3.029 3.037 3.029 3.037V54.97h36.026V7.21H26.39Z" fill="#9CA3AB"/><path d="M46.521 9.925c-8.542 0-14.865 3.151-14.865 12.287 0 6.187 1.551 7.916 3.864 9.551-1.995 1.51-4.783 4.345-4.783 12.982 0 9.141 1.598 9.707 4.93 11.264h14.096c2.13 0 5.686.602 6.73.161V12.157c-2.088-1.34-5.001-2.237-9.977-2.237m2.146 39.845c0 1.614-.893 2.922-2.089 2.922-1.195 0-2.088-1.308-2.088-2.922V40.26c0-1.614.893-2.922 2.088-2.922 1.196 0 2.089 1.308 2.089 2.922v9.505Zm0-23.54c0 1.614-.893 2.922-2.089 2.922-1.195 0-2.088-1.308-2.088-2.923v-5.84c0-1.614.893-2.922 2.088-2.922 1.196 0 2.089 1.308 2.089 2.923v5.84Z" fill="#fff"/><path d="M54.823 0H4.177C2.157 0 0 2.16 0 4.184v59.632C0 65.836 2.156 68 4.177 68h50.646C56.843 68 59 65.835 59 63.816V4.184C59 2.159 56.844 0 54.823 0Zm.517 51.114a3.138 3.138 0 0 1-3.133 3.14H6.793a3.138 3.138 0 0 1-3.133-3.14V6.65a3.138 3.138 0 0 1 3.133-3.14h45.414a3.138 3.138 0 0 1 3.133 3.14v44.465Z" fill="#231F20"/><path d="M5.843 57.759v-.608h1.101v.608h1.488v.825H6.944c0 .488.167.94.496 1.35.308.384.731.695 1.27.944l-.492.639a4.172 4.172 0 0 1-1.112-.654c-.344-.286-.59-.566-.736-.846-.151.28-.407.56-.757.846-.355.29-.736.508-1.138.664l-.408-.633a3.748 3.748 0 0 0 1.243-.955c.355-.426.538-.877.538-1.36H4.36v-.825h1.488l-.005.005Zm3.931 4.5c.475.301.716.68.716 1.121 0 .436-.246.805-.721 1.106-.533.337-1.253.504-2.172.504-.919 0-1.634-.172-2.162-.504-.47-.301-.705-.67-.705-1.106 0-.436.235-.815.705-1.12.533-.338 1.259-.504 2.162-.504s1.645.166 2.177.503Zm-3.498.581c-.287.14-.433.317-.433.53 0 .213.14.379.433.52.318.165.762.243 1.32.243.56 0 1.02-.083 1.348-.244.292-.14.439-.317.439-.519s-.147-.384-.439-.53c-.324-.155-.778-.238-1.347-.238-.57 0-1.003.078-1.321.239Zm4.11-1.318H9.282v-1.49H8.025v-.83h1.258v-2.014h1.102v4.334Zm5.847-1.802c.439.504 1.086.91 1.937 1.2l-.49.675c-.695-.25-1.264-.53-1.708-.836a3.934 3.934 0 0 1-1.107-1.152 3.63 3.63 0 0 1-1.075 1.152c-.444.312-1.024.587-1.723.836l-.44-.675c.815-.296 1.442-.696 1.88-1.21.549-.638.825-1.458.825-2.46h1.092c0 1.023.271 1.843.81 2.47Zm-1.9 3.681v-2.107h1.09V63.4h2.685v.83h-6.433v-.83h2.657Zm9.784-3.364h-2.02v-.861h2.02v-.592h-1.984v-.852h1.984v-.544h1.102v5.491h-1.102v-1.152h-4c-.266 0-.464-.083-.595-.244-.12-.145-.177-.358-.177-.633v-3.4h1.101v3.436h3.67v-.649ZM20.8 63.853h4.47v.85h-4.595c-.35 0-.605-.067-.757-.196-.146-.13-.214-.343-.214-.639V62.26h1.102v1.593h-.005Zm9.316-5.663c.334.638.506 1.448.506 2.429 0 1.043-.167 1.89-.506 2.543-.355.711-.856 1.064-1.499 1.064-.642 0-1.153-.353-1.519-1.064-.329-.649-.496-1.5-.496-2.543 0-.981.167-1.796.496-2.43.366-.695.872-1.043 1.52-1.043.647 0 1.138.348 1.498 1.043Zm-2.193.565c-.146.478-.214 1.1-.214 1.858 0 .82.073 1.48.214 1.983.157.535.386.805.684.805.298 0 .517-.27.674-.805.151-.498.224-1.157.224-1.982 0-.758-.073-1.376-.224-1.859-.162-.519-.392-.779-.674-.779-.282 0-.522.26-.684.78Zm4.704 6.027h-1.101v-7.594h1.101v7.594Zm1.843-5.424a1.104 1.104 0 0 1-.214-.639c0-.436.24-.805.716-1.095.527-.317 1.242-.473 2.161-.473.92 0 1.634.156 2.162.473.48.296.72.659.72 1.095 0 .223-.073.441-.224.639a2.072 2.072 0 0 1-.668.534v.815h1.227v.862h-6.433v-.862h1.211v-.815a1.849 1.849 0 0 1-.652-.535m4.735 3.12c.465.28.7.623.7 1.033 0 .41-.235.737-.7 1.018-.517.311-1.206.467-2.078.467-.872 0-1.571-.156-2.088-.467-.46-.28-.69-.618-.69-1.018s.23-.752.69-1.033c.517-.311 1.211-.467 2.088-.467s1.567.156 2.078.467Zm-3.383-4.246c-.287.125-.428.29-.428.488 0 .197.14.353.428.483.313.14.741.207 1.295.207.553 0 .981-.067 1.3-.207.287-.125.433-.286.433-.483s-.146-.363-.433-.488c-.319-.13-.752-.197-1.3-.197s-.982.067-1.295.197Zm.036 4.848c-.276.114-.417.26-.417.426 0 .166.14.311.417.426.314.13.737.197 1.27.197.532 0 .934-.068 1.242-.197.282-.115.423-.26.423-.426 0-.166-.141-.312-.423-.426-.308-.124-.72-.192-1.243-.192-.522 0-.955.063-1.269.192Zm2.162-2.367v-.488c-.13.021-.271.037-.423.057-.14.01-.297.016-.47.016-.172 0-.334 0-.475-.016a7.336 7.336 0 0 1-.433-.057v.488h1.801Zm9.738.234H45.1v.535h2.297v2.008h-4.605v.348h4.668v.862h-4.762c-.329 0-.58-.078-.752-.228-.167-.146-.25-.359-.25-.634v-1.199h4.605v-.306h-4.605v-.852h2.313v-.534h-2.674V60.1h6.438v.846h-.01Zm-4.97-3.696v.363h3.508v-.363h1.102v2.575h-4.705c-.35 0-.61-.073-.773-.213-.151-.14-.23-.358-.23-.654V57.25h1.102-.005Zm0 1.723h3.508v-.514h-3.509v.514Zm9.507-1.625V59.7c0 1.126-.276 2.071-.835 2.834-.517.7-1.28 1.267-2.297 1.697l-.439-.648c.741-.338 1.321-.769 1.733-1.288.496-.628.742-1.38.742-2.263V58.21h-2.297v-.862H52.3Zm2.465-.155v3.078h.752v.867h-.752v3.644h-1.102v-7.594h1.102v.005Z" fill="#fff"/></g><defs><clipPath id="clip0_2128_60132"><path fill="#fff" d="M0 0h59v68H0z"/></clipPath></defs></svg>